<?xml version="1.0" encoding="UTF-8" standalone="no"?>
<!DOCTYPE svg PUBLIC "-//W3C//DTD SVG 1.1//EN"
 "http://www.w3.org/Graphics/SVG/1.1/DTD/svg11.dtd">
<!-- Generated by graphviz version 8.1.0 (20230707.0739)
 -->
<!-- Title: FCFS::addProcess Pages: 1 -->
<svg width="263pt" height="125pt"
 viewBox="0.00 0.00 262.75 124.88" xmlns="http://www.w3.org/2000/svg" xmlns:xlink="http://www.w3.org/1999/xlink">
<g id="graph0" class="graph" transform="scale(1 1) rotate(0) translate(4 120.88)">
<title>FCFS::addProcess</title>
<!-- Node1 -->
<g id="Node000001" class="node">
<title>Node1</title>
<g id="a_Node000001"><a xlink:title="Adds the process to the ready queue if it isn&#39;t already there.">
<polygon fill="#999999" stroke="#666666" points="100,-73.88 0,-73.88 0,-54.62 100,-54.62 100,-73.88"/>
<text text-anchor="middle" x="50" y="-60.38" font-family="Helvetica,sans-Serif" font-size="10.00">FCFS::addProcess</text>
</a>
</g>
</g>
<!-- Node2 -->
<g id="Node000002" class="node">
<title>Node2</title>
<g id="a_Node000002"><a target="_blank" xlink:href="http://en.cppreference.com/w/cpp/container/unordered_set/end.html#" xlink:title=" ">
<polygon fill="white" stroke="#666666" points="254.75,-116.88 136,-116.88 136,-97.62 254.75,-97.62 254.75,-116.88"/>
<text text-anchor="middle" x="195.38" y="-103.38" font-family="Helvetica,sans-Serif" font-size="10.00">std::unordered_set::end</text>
</a>
</g>
</g>
<!-- Node1&#45;&gt;Node2 -->
<g id="edge1_Node000001_Node000002" class="edge">
<title>Node1&#45;&gt;Node2</title>
<g id="a_edge1_Node000001_Node000002"><a xlink:title=" ">
<path fill="none" stroke="#63b8ff" d="M84.62,-74.33C104.3,-80.24 129.38,-87.76 150.59,-94.12"/>
<polygon fill="#63b8ff" stroke="#63b8ff" points="149.39,-97.71 159.97,-97.23 151.4,-91.01 149.39,-97.71"/>
</a>
</g>
</g>
<!-- Node3 -->
<g id="Node000003" class="node">
<title>Node3</title>
<g id="a_Node000003"><a target="_blank" xlink:href="http://en.cppreference.com/w/cpp/container/unordered_set/find.html#" xlink:title=" ">
<polygon fill="white" stroke="#666666" points="243.88,-79.5 146.88,-79.5 146.88,-49 243.88,-49 243.88,-79.5"/>
<text text-anchor="start" x="154.88" y="-66" font-family="Helvetica,sans-Serif" font-size="10.00">std::unordered_set</text>
<text text-anchor="middle" x="195.38" y="-54.75" font-family="Helvetica,sans-Serif" font-size="10.00">::find</text>
</a>
</g>
</g>
<!-- Node1&#45;&gt;Node3 -->
<g id="edge2_Node000001_Node000003" class="edge">
<title>Node1&#45;&gt;Node3</title>
<g id="a_edge2_Node000001_Node000003"><a xlink:title=" ">
<path fill="none" stroke="#63b8ff" d="M100.34,-64.25C111.64,-64.25 123.75,-64.25 135.41,-64.25"/>
<polygon fill="#63b8ff" stroke="#63b8ff" points="135.4,-67.75 145.4,-64.25 135.4,-60.75 135.4,-67.75"/>
</a>
</g>
</g>
<!-- Node4 -->
<g id="Node000004" class="node">
<title>Node4</title>
<g id="a_Node000004"><a target="_blank" xlink:href="http://en.cppreference.com/w/cpp/container/unordered_set/insert.html#" xlink:title=" ">
<polygon fill="white" stroke="#666666" points="243.88,-30.5 146.88,-30.5 146.88,0 243.88,0 243.88,-30.5"/>
<text text-anchor="start" x="154.88" y="-17" font-family="Helvetica,sans-Serif" font-size="10.00">std::unordered_set</text>
<text text-anchor="middle" x="195.38" y="-5.75" font-family="Helvetica,sans-Serif" font-size="10.00">::insert</text>
</a>
</g>
</g>
<!-- Node1&#45;&gt;Node4 -->
<g id="edge3_Node000001_Node000004" class="edge">
<title>Node1&#45;&gt;Node4</title>
<g id="a_edge3_Node000001_Node000004"><a xlink:title=" ">
<path fill="none" stroke="#63b8ff" d="M80.36,-54.22C97.03,-48.52 118.47,-41.19 138.24,-34.43"/>
<polygon fill="#63b8ff" stroke="#63b8ff" points="139.07,-37.51 147.4,-30.96 136.8,-30.89 139.07,-37.51"/>
</a>
</g>
</g>
</g>
</svg>
