<?xml version="1.0" encoding="UTF-8" standalone="no"?>
<!DOCTYPE svg PUBLIC "-//W3C//DTD SVG 1.1//EN"
 "http://www.w3.org/Graphics/SVG/1.1/DTD/svg11.dtd">
<!-- Generated by graphviz version 8.1.0 (20230707.0739)
 -->
<!-- Title: main Pages: 1 -->
<svg width="425pt" height="125pt"
 viewBox="0.00 0.00 425.25 124.88" xmlns="http://www.w3.org/2000/svg" xmlns:xlink="http://www.w3.org/1999/xlink">

<svg id="main" version="1.1" xmlns="http://www.w3.org/2000/svg" xmlns:xlink="http://www.w3.org/1999/xlink" xml:space="preserve" onload="init(evt)">
<style type="text/css"><![CDATA[
.node, .edge {opacity: 0.7;}
.node.selected, .edge.selected {opacity: 1;}
.edge:hover path { stroke: red; }
.edge:hover polygon { stroke: red; fill: red; }
]]></style>
<script type="application/ecmascript" xlink:href="../../svg.min.js"/>
<svg id="graph" class="graph">
<g id="graph0" class="graph" transform="scale(1 1) rotate(0) translate(4 120.88)">
<title>main</title>
<!-- Node1 -->
<g id="Node000001" class="node">
<title>Node1</title>
<g id="a_Node000001"><a xlink:title="Entry point of the program.">
<polygon fill="#999999" stroke="#666666" points="37,-54.88 0,-54.88 0,-35.62 37,-35.62 37,-54.88"/>
<text text-anchor="middle" x="18.5" y="-41.38" font-family="Helvetica,sans-Serif" font-size="10.00">main</text>
</a>
</g>
</g>
<!-- Node2 -->
<g id="Node000002" class="node">
<title>Node2</title>
<g id="a_Node000002"><a xlink:href="../../df/d47/fcfs__scheduling_8cpp.html#aa8dca7b867074164d5f45b0f3851269d" target="_top" xlink:title="Self&#45;test implementations.">
<polygon fill="white" stroke="#666666" points="105.5,-54.88 73,-54.88 73,-35.62 105.5,-35.62 105.5,-54.88"/>
<text text-anchor="middle" x="89.25" y="-41.38" font-family="Helvetica,sans-Serif" font-size="10.00">test</text>
</a>
</g>
</g>
<!-- Node1&#45;&gt;Node2 -->
<g id="edge1_Node000001_Node000002" class="edge">
<title>Node1&#45;&gt;Node2</title>
<g id="a_edge1_Node000001_Node000002"><a xlink:title=" ">
<path fill="none" stroke="#63b8ff" d="M37.2,-45.25C44.67,-45.25 53.52,-45.25 61.73,-45.25"/>
<polygon fill="#63b8ff" stroke="#63b8ff" points="61.71,-48.75 71.71,-45.25 61.71,-41.75 61.71,-48.75"/>
</a>
</g>
</g>
<!-- Node3 -->
<g id="Node000003" class="node">
<title>Node3</title>
<g id="a_Node000003"><a xlink:href="../../dd/dca/class_f_c_f_s.html#a8fbfe4d85f7576b4a7aade07d29fbd69" target="_top" xlink:title="Adds the process to the ready queue if it isn&#39;t already there.">
<polygon fill="white" stroke="#666666" points="252,-73.88 152,-73.88 152,-54.62 252,-54.62 252,-73.88"/>
<text text-anchor="middle" x="202" y="-60.38" font-family="Helvetica,sans-Serif" font-size="10.00">FCFS::addProcess</text>
</a>
</g>
</g>
<!-- Node2&#45;&gt;Node3 -->
<g id="edge2_Node000002_Node000003" class="edge">
<title>Node2&#45;&gt;Node3</title>
<g id="a_edge2_Node000002_Node000003"><a xlink:title=" ">
<path fill="none" stroke="#63b8ff" d="M105.65,-47.89C115.12,-49.52 127.94,-51.72 141.1,-53.97"/>
<polygon fill="#63b8ff" stroke="#63b8ff" points="140.22,-57.55 150.67,-55.79 141.4,-50.65 140.22,-57.55"/>
</a>
</g>
</g>
<!-- Node7 -->
<g id="Node000007" class="node">
<title>Node7</title>
<g id="a_Node000007"><a xlink:href="../../dd/dca/class_f_c_f_s.html#aa25dbe30ba9930b5a7c1a6d11758bd91" target="_top" xlink:title="Algorithm for scheduling CPU processes according to the First Come First Serve(FCFS) scheduling algor...">
<polygon fill="white" stroke="#666666" points="262.5,-36.88 141.5,-36.88 141.5,-17.62 262.5,-17.62 262.5,-36.88"/>
<text text-anchor="middle" x="202" y="-23.38" font-family="Helvetica,sans-Serif" font-size="10.00">FCFS::scheduleForFcfs</text>
</a>
</g>
</g>
<!-- Node2&#45;&gt;Node7 -->
<g id="edge6_Node000002_Node000007" class="edge">
<title>Node2&#45;&gt;Node7</title>
<g id="a_edge6_Node000002_Node000007"><a xlink:title=" ">
<path fill="none" stroke="#63b8ff" d="M105.65,-42.75C112.56,-41.62 121.25,-40.21 130.55,-38.7"/>
<polygon fill="#63b8ff" stroke="#63b8ff" points="130.94,-42.02 140.25,-36.96 129.82,-35.11 130.94,-42.02"/>
</a>
</g>
</g>
<!-- Node4 -->
<g id="Node000004" class="node">
<title>Node4</title>
<g id="a_Node000004"><a target="_blank" xlink:href="http://en.cppreference.com/w/cpp/container/unordered_set/end.html#" xlink:title=" ">
<polygon fill="white" stroke="#666666" points="417.25,-116.88 298.5,-116.88 298.5,-97.62 417.25,-97.62 417.25,-116.88"/>
<text text-anchor="middle" x="357.88" y="-103.38" font-family="Helvetica,sans-Serif" font-size="10.00">std::unordered_set::end</text>
</a>
</g>
</g>
<!-- Node3&#45;&gt;Node4 -->
<g id="edge3_Node000003_Node000004" class="edge">
<title>Node3&#45;&gt;Node4</title>
<g id="a_edge3_Node000003_Node000004"><a xlink:title=" ">
<path fill="none" stroke="#63b8ff" d="M239.08,-74.33C260.32,-80.27 287.41,-87.84 310.26,-94.22"/>
<polygon fill="#63b8ff" stroke="#63b8ff" points="309.18,-97.84 319.76,-97.16 311.07,-91.09 309.18,-97.84"/>
</a>
</g>
</g>
<!-- Node5 -->
<g id="Node000005" class="node">
<title>Node5</title>
<g id="a_Node000005"><a target="_blank" xlink:href="http://en.cppreference.com/w/cpp/container/unordered_set/find.html#" xlink:title=" ">
<polygon fill="white" stroke="#666666" points="406.38,-79.5 309.38,-79.5 309.38,-49 406.38,-49 406.38,-79.5"/>
<text text-anchor="start" x="317.38" y="-66" font-family="Helvetica,sans-Serif" font-size="10.00">std::unordered_set</text>
<text text-anchor="middle" x="357.88" y="-54.75" font-family="Helvetica,sans-Serif" font-size="10.00">::find</text>
</a>
</g>
</g>
<!-- Node3&#45;&gt;Node5 -->
<g id="edge4_Node000003_Node000005" class="edge">
<title>Node3&#45;&gt;Node5</title>
<g id="a_edge4_Node000003_Node000005"><a xlink:title=" ">
<path fill="none" stroke="#63b8ff" d="M252.11,-64.25C266.76,-64.25 282.97,-64.25 298.17,-64.25"/>
<polygon fill="#63b8ff" stroke="#63b8ff" points="298.02,-67.75 308.02,-64.25 298.02,-60.75 298.02,-67.75"/>
</a>
</g>
</g>
<!-- Node6 -->
<g id="Node000006" class="node">
<title>Node6</title>
<g id="a_Node000006"><a target="_blank" xlink:href="http://en.cppreference.com/w/cpp/container/unordered_set/insert.html#" xlink:title=" ">
<polygon fill="white" stroke="#666666" points="406.38,-30.5 309.38,-30.5 309.38,0 406.38,0 406.38,-30.5"/>
<text text-anchor="start" x="317.38" y="-17" font-family="Helvetica,sans-Serif" font-size="10.00">std::unordered_set</text>
<text text-anchor="middle" x="357.88" y="-5.75" font-family="Helvetica,sans-Serif" font-size="10.00">::insert</text>
</a>
</g>
</g>
<!-- Node3&#45;&gt;Node6 -->
<g id="edge5_Node000003_Node000006" class="edge">
<title>Node3&#45;&gt;Node6</title>
<g id="a_edge5_Node000003_Node000006"><a xlink:title=" ">
<path fill="none" stroke="#63b8ff" d="M236.71,-54.2C245.15,-51.65 254.16,-48.88 262.5,-46.25 274.58,-42.44 287.49,-38.26 299.77,-34.25"/>
<polygon fill="#63b8ff" stroke="#63b8ff" points="300.49,-37.37 308.9,-30.92 298.31,-30.72 300.49,-37.37"/>
</a>
</g>
</g>
</g>
</svg>
</svg>

<style type='text/css'>
<![CDATA[
[data-mouse-over-selected='false'] { opacity: 0.7; }
[data-mouse-over-selected='true']  { opacity: 1.0; }
]]>
</style>
<script type="application/ecmascript"><![CDATA[
document.addEventListener('DOMContentLoaded', (event) => {
  highlightEdges();
  highlightAdjacentNodes();
});
]]></script>
</svg>
