<?xml version="1.0" encoding="UTF-8" standalone="no"?>
<!DOCTYPE svg PUBLIC "-//W3C//DTD SVG 1.1//EN"
 "http://www.w3.org/Graphics/SVG/1.1/DTD/svg11.dtd">
<!-- Generated by graphviz version 8.1.0 (20230707.0739)
 -->
<!-- Title: test Pages: 1 -->
<svg width="352pt" height="125pt"
 viewBox="0.00 0.00 352.25 124.88" xmlns="http://www.w3.org/2000/svg" xmlns:xlink="http://www.w3.org/1999/xlink">

<svg id="main" version="1.1" xmlns="http://www.w3.org/2000/svg" xmlns:xlink="http://www.w3.org/1999/xlink" xml:space="preserve" onload="init(evt)">
<style type="text/css"><![CDATA[
.node, .edge {opacity: 0.7;}
.node.selected, .edge.selected {opacity: 1;}
.edge:hover path { stroke: red; }
.edge:hover polygon { stroke: red; fill: red; }
]]></style>
<script type="application/ecmascript" xlink:href="../../svg.min.js"/>
<svg id="graph" class="graph">
<g id="graph0" class="graph" transform="scale(1 1) rotate(0) translate(4 120.88)">
<title>test</title>
<!-- Node1 -->
<g id="Node000001" class="node">
<title>Node1</title>
<g id="a_Node000001"><a xlink:title="Self&#45;test implementations.">
<polygon fill="#999999" stroke="#666666" points="32.5,-54.88 0,-54.88 0,-35.62 32.5,-35.62 32.5,-54.88"/>
<text text-anchor="middle" x="16.25" y="-41.38" font-family="Helvetica,sans-Serif" font-size="10.00">test</text>
</a>
</g>
</g>
<!-- Node2 -->
<g id="Node000002" class="node">
<title>Node2</title>
<g id="a_Node000002"><a xlink:href="../../dd/dca/class_f_c_f_s.html#a8fbfe4d85f7576b4a7aade07d29fbd69" target="_top" xlink:title="Adds the process to the ready queue if it isn&#39;t already there.">
<polygon fill="white" stroke="#666666" points="179,-73.88 79,-73.88 79,-54.62 179,-54.62 179,-73.88"/>
<text text-anchor="middle" x="129" y="-60.38" font-family="Helvetica,sans-Serif" font-size="10.00">FCFS::addProcess</text>
</a>
</g>
</g>
<!-- Node1&#45;&gt;Node2 -->
<g id="edge1_Node000001_Node000002" class="edge">
<title>Node1&#45;&gt;Node2</title>
<g id="a_edge1_Node000001_Node000002"><a xlink:title=" ">
<path fill="none" stroke="#63b8ff" d="M32.65,-47.89C42.12,-49.52 54.94,-51.72 68.1,-53.97"/>
<polygon fill="#63b8ff" stroke="#63b8ff" points="67.22,-57.55 77.67,-55.79 68.4,-50.65 67.22,-57.55"/>
</a>
</g>
</g>
<!-- Node6 -->
<g id="Node000006" class="node">
<title>Node6</title>
<g id="a_Node000006"><a xlink:href="../../dd/dca/class_f_c_f_s.html#aa25dbe30ba9930b5a7c1a6d11758bd91" target="_top" xlink:title="Algorithm for scheduling CPU processes according to the First Come First Serve(FCFS) scheduling algor...">
<polygon fill="white" stroke="#666666" points="189.5,-36.88 68.5,-36.88 68.5,-17.62 189.5,-17.62 189.5,-36.88"/>
<text text-anchor="middle" x="129" y="-23.38" font-family="Helvetica,sans-Serif" font-size="10.00">FCFS::scheduleForFcfs</text>
</a>
</g>
</g>
<!-- Node1&#45;&gt;Node6 -->
<g id="edge5_Node000001_Node000006" class="edge">
<title>Node1&#45;&gt;Node6</title>
<g id="a_edge5_Node000001_Node000006"><a xlink:title=" ">
<path fill="none" stroke="#63b8ff" d="M32.65,-42.75C39.56,-41.62 48.25,-40.21 57.55,-38.7"/>
<polygon fill="#63b8ff" stroke="#63b8ff" points="57.94,-42.02 67.25,-36.96 56.82,-35.11 57.94,-42.02"/>
</a>
</g>
</g>
<!-- Node3 -->
<g id="Node000003" class="node">
<title>Node3</title>
<g id="a_Node000003"><a target="_blank" xlink:href="http://en.cppreference.com/w/cpp/container/unordered_set/end.html#" xlink:title=" ">
<polygon fill="white" stroke="#666666" points="344.25,-116.88 225.5,-116.88 225.5,-97.62 344.25,-97.62 344.25,-116.88"/>
<text text-anchor="middle" x="284.88" y="-103.38" font-family="Helvetica,sans-Serif" font-size="10.00">std::unordered_set::end</text>
</a>
</g>
</g>
<!-- Node2&#45;&gt;Node3 -->
<g id="edge2_Node000002_Node000003" class="edge">
<title>Node2&#45;&gt;Node3</title>
<g id="a_edge2_Node000002_Node000003"><a xlink:title=" ">
<path fill="none" stroke="#63b8ff" d="M166.08,-74.33C187.32,-80.27 214.41,-87.84 237.26,-94.22"/>
<polygon fill="#63b8ff" stroke="#63b8ff" points="236.18,-97.84 246.76,-97.16 238.07,-91.09 236.18,-97.84"/>
</a>
</g>
</g>
<!-- Node4 -->
<g id="Node000004" class="node">
<title>Node4</title>
<g id="a_Node000004"><a target="_blank" xlink:href="http://en.cppreference.com/w/cpp/container/unordered_set/find.html#" xlink:title=" ">
<polygon fill="white" stroke="#666666" points="333.38,-79.5 236.38,-79.5 236.38,-49 333.38,-49 333.38,-79.5"/>
<text text-anchor="start" x="244.38" y="-66" font-family="Helvetica,sans-Serif" font-size="10.00">std::unordered_set</text>
<text text-anchor="middle" x="284.88" y="-54.75" font-family="Helvetica,sans-Serif" font-size="10.00">::find</text>
</a>
</g>
</g>
<!-- Node2&#45;&gt;Node4 -->
<g id="edge3_Node000002_Node000004" class="edge">
<title>Node2&#45;&gt;Node4</title>
<g id="a_edge3_Node000002_Node000004"><a xlink:title=" ">
<path fill="none" stroke="#63b8ff" d="M179.11,-64.25C193.76,-64.25 209.97,-64.25 225.17,-64.25"/>
<polygon fill="#63b8ff" stroke="#63b8ff" points="225.02,-67.75 235.02,-64.25 225.02,-60.75 225.02,-67.75"/>
</a>
</g>
</g>
<!-- Node5 -->
<g id="Node000005" class="node">
<title>Node5</title>
<g id="a_Node000005"><a target="_blank" xlink:href="http://en.cppreference.com/w/cpp/container/unordered_set/insert.html#" xlink:title=" ">
<polygon fill="white" stroke="#666666" points="333.38,-30.5 236.38,-30.5 236.38,0 333.38,0 333.38,-30.5"/>
<text text-anchor="start" x="244.38" y="-17" font-family="Helvetica,sans-Serif" font-size="10.00">std::unordered_set</text>
<text text-anchor="middle" x="284.88" y="-5.75" font-family="Helvetica,sans-Serif" font-size="10.00">::insert</text>
</a>
</g>
</g>
<!-- Node2&#45;&gt;Node5 -->
<g id="edge4_Node000002_Node000005" class="edge">
<title>Node2&#45;&gt;Node5</title>
<g id="a_edge4_Node000002_Node000005"><a xlink:title=" ">
<path fill="none" stroke="#63b8ff" d="M163.71,-54.2C172.15,-51.65 181.16,-48.88 189.5,-46.25 201.58,-42.44 214.49,-38.26 226.77,-34.25"/>
<polygon fill="#63b8ff" stroke="#63b8ff" points="227.49,-37.37 235.9,-30.92 225.31,-30.72 227.49,-37.37"/>
</a>
</g>
</g>
</g>
</svg>
</svg>

<style type='text/css'>
<![CDATA[
[data-mouse-over-selected='false'] { opacity: 0.7; }
[data-mouse-over-selected='true']  { opacity: 1.0; }
]]>
</style>
<script type="application/ecmascript"><![CDATA[
document.addEventListener('DOMContentLoaded', (event) => {
  highlightEdges();
  highlightAdjacentNodes();
});
]]></script>
</svg>
