<?xml version="1.0" encoding="UTF-8" standalone="no"?>
<!DOCTYPE svg PUBLIC "-//W3C//DTD SVG 1.1//EN"
 "http://www.w3.org/Graphics/SVG/1.1/DTD/svg11.dtd">
<!-- Generated by graphviz version 8.1.0 (20230707.0739)
 -->
<!-- Title: main Pages: 1 -->
<svg width="457pt" height="281pt"
 viewBox="0.00 0.00 456.75 281.25" xmlns="http://www.w3.org/2000/svg" xmlns:xlink="http://www.w3.org/1999/xlink">
<g id="graph0" class="graph" transform="scale(1 1) rotate(0) translate(4 277.25)">
<title>main</title>
<!-- Node1 -->
<g id="Node000001" class="node">
<title>Node1</title>
<g id="a_Node000001"><a xlink:title=" ">
<polygon fill="#999999" stroke="#666666" points="37,-94.25 0,-94.25 0,-75 37,-75 37,-94.25"/>
<text text-anchor="middle" x="18.5" y="-80.75" font-family="Helvetica,sans-Serif" font-size="10.00">main</text>
</a>
</g>
</g>
<!-- Node2 -->
<g id="Node000002" class="node">
<title>Node2</title>
<g id="a_Node000002"><a xlink:href="../../d4/d90/classdata__structures_1_1_skip_list.html#a812611f80b8079268dbb19cc4e9bee5c" target="_top" xlink:title=" ">
<polygon fill="white" stroke="#666666" points="197.75,-262.88 73,-262.88 73,-232.38 197.75,-232.38 197.75,-262.88"/>
<text text-anchor="start" x="81" y="-249.38" font-family="Helvetica,sans-Serif" font-size="10.00">data_structures::SkipList</text>
<text text-anchor="middle" x="135.38" y="-238.12" font-family="Helvetica,sans-Serif" font-size="10.00">::displayList</text>
</a>
</g>
</g>
<!-- Node1&#45;&gt;Node2 -->
<g id="edge1_Node000001_Node000002" class="edge">
<title>Node1&#45;&gt;Node2</title>
<g id="a_edge1_Node000001_Node000002"><a xlink:title=" ">
<path fill="none" stroke="#63b8ff" d="M21.74,-94.6C27.19,-116.99 42.93,-172.06 73,-207.62 78.9,-214.61 86.33,-220.82 93.96,-226.15"/>
<polygon fill="#63b8ff" stroke="#63b8ff" points="91.64,-229.47 101.93,-231.99 95.45,-223.6 91.64,-229.47"/>
</a>
</g>
</g>
<!-- Node4 -->
<g id="Node000004" class="node">
<title>Node4</title>
<g id="a_Node000004"><a xlink:href="../../d4/d90/classdata__structures_1_1_skip_list.html#a40a4042bdf0b6683b5f21ae7854de8a9" target="_top" xlink:title=" ">
<polygon fill="white" stroke="#666666" points="197.75,-198.88 73,-198.88 73,-168.38 197.75,-168.38 197.75,-198.88"/>
<text text-anchor="start" x="81" y="-185.38" font-family="Helvetica,sans-Serif" font-size="10.00">data_structures::SkipList</text>
<text text-anchor="middle" x="135.38" y="-174.12" font-family="Helvetica,sans-Serif" font-size="10.00">::insertElement</text>
</a>
</g>
</g>
<!-- Node1&#45;&gt;Node4 -->
<g id="edge3_Node000001_Node000004" class="edge">
<title>Node1&#45;&gt;Node4</title>
<g id="a_edge3_Node000001_Node000004"><a xlink:title=" ">
<path fill="none" stroke="#63b8ff" d="M30.93,-94.48C48.8,-109.88 83.82,-140.05 108.13,-161.01"/>
<polygon fill="#63b8ff" stroke="#63b8ff" points="105.38,-164.12 115.24,-167.99 109.95,-158.81 105.38,-164.12"/>
</a>
</g>
</g>
<!-- Node7 -->
<g id="Node000007" class="node">
<title>Node7</title>
<g id="a_Node000007"><a target="_blank" xlink:href="http://en.cppreference.com/w/cpp/numeric/random/rand.html#" xlink:title=" ">
<polygon fill="white" stroke="#666666" points="448.75,-143.25 394.5,-143.25 394.5,-124 448.75,-124 448.75,-143.25"/>
<text text-anchor="middle" x="421.62" y="-129.75" font-family="Helvetica,sans-Serif" font-size="10.00">std::rand</text>
</a>
</g>
</g>
<!-- Node1&#45;&gt;Node7 -->
<g id="edge10_Node000001_Node000007" class="edge">
<title>Node1&#45;&gt;Node7</title>
<g id="a_edge10_Node000001_Node000007"><a xlink:title=" ">
<path fill="none" stroke="#63b8ff" d="M37.16,-83.22C88.03,-79.67 238.94,-72.72 358.5,-103.62 371.11,-106.88 384.21,-112.79 395.12,-118.5"/>
<polygon fill="#63b8ff" stroke="#63b8ff" points="392.98,-121.87 403.43,-123.61 396.35,-115.73 392.98,-121.87"/>
</a>
</g>
</g>
<!-- Node9 -->
<g id="Node000009" class="node">
<title>Node9</title>
<g id="a_Node000009"><a target="_blank" xlink:href="http://en.cppreference.com/w/cpp/numeric/random/srand.html#" xlink:title=" ">
<polygon fill="white" stroke="#666666" points="165.12,-56.25 105.62,-56.25 105.62,-37 165.12,-37 165.12,-56.25"/>
<text text-anchor="middle" x="135.38" y="-42.75" font-family="Helvetica,sans-Serif" font-size="10.00">std::srand</text>
</a>
</g>
</g>
<!-- Node1&#45;&gt;Node9 -->
<g id="edge11_Node000001_Node000009" class="edge">
<title>Node1&#45;&gt;Node9</title>
<g id="a_edge11_Node000001_Node000009"><a xlink:title=" ">
<path fill="none" stroke="#63b8ff" d="M37.45,-78.69C52.85,-73.59 75.6,-66.07 95.19,-59.59"/>
<polygon fill="#63b8ff" stroke="#63b8ff" points="95.99,-62.68 104.39,-56.21 93.79,-56.03 95.99,-62.68"/>
</a>
</g>
</g>
<!-- Node10 -->
<g id="Node000010" class="node">
<title>Node10</title>
<g id="a_Node000010"><a target="_blank" xlink:href="http://en.cppreference.com/w/cpp/chrono/c/time.html#" xlink:title=" ">
<polygon fill="white" stroke="#666666" points="162.5,-19.25 108.25,-19.25 108.25,0 162.5,0 162.5,-19.25"/>
<text text-anchor="middle" x="135.38" y="-5.75" font-family="Helvetica,sans-Serif" font-size="10.00">std::time</text>
</a>
</g>
</g>
<!-- Node1&#45;&gt;Node10 -->
<g id="edge12_Node000001_Node000010" class="edge">
<title>Node1&#45;&gt;Node10</title>
<g id="a_edge12_Node000001_Node000010"><a xlink:title=" ">
<path fill="none" stroke="#63b8ff" d="M26.26,-74.63C35.4,-61.88 52.88,-39.99 73,-27.62 80.45,-23.05 89.12,-19.58 97.56,-16.98"/>
<polygon fill="#63b8ff" stroke="#63b8ff" points="98.3,-20.13 107.02,-14.12 96.45,-13.38 98.3,-20.13"/>
</a>
</g>
</g>
<!-- Node3 -->
<g id="Node000003" class="node">
<title>Node3</title>
<g id="a_Node000003"><a target="_blank" xlink:href="http://en.cppreference.com/w/cpp/io/manip/endl.html#" xlink:title=" ">
<polygon fill="white" stroke="#666666" points="322.88,-273.25 269.38,-273.25 269.38,-254 322.88,-254 322.88,-273.25"/>
<text text-anchor="middle" x="296.12" y="-259.75" font-family="Helvetica,sans-Serif" font-size="10.00">std::endl</text>
</a>
</g>
</g>
<!-- Node2&#45;&gt;Node3 -->
<g id="edge2_Node000002_Node000003" class="edge">
<title>Node2&#45;&gt;Node3</title>
<g id="a_edge2_Node000002_Node000003"><a xlink:title=" ">
<path fill="none" stroke="#63b8ff" d="M198.21,-253.86C218.44,-255.9 240.28,-258.1 258.09,-259.89"/>
<polygon fill="#63b8ff" stroke="#63b8ff" points="257.59,-263.46 267.89,-260.98 258.29,-256.5 257.59,-263.46"/>
</a>
</g>
</g>
<!-- Node4&#45;&gt;Node3 -->
<g id="edge4_Node000004_Node000003" class="edge">
<title>Node4&#45;&gt;Node3</title>
<g id="a_edge4_Node000004_Node000003"><a xlink:title=" ">
<path fill="none" stroke="#63b8ff" d="M160.27,-199.33C186.54,-216.53 226.09,-242.15 233.75,-245.62 241.64,-249.21 250.43,-252.28 258.82,-254.82"/>
<polygon fill="#63b8ff" stroke="#63b8ff" points="257.59,-258.39 268.16,-257.75 259.49,-251.65 257.59,-258.39"/>
</a>
</g>
</g>
<!-- Node5 -->
<g id="Node000005" class="node">
<title>Node5</title>
<g id="a_Node000005"><a target="_blank" xlink:href="http://en.cppreference.com/w/cpp/container/array/fill.html#" xlink:title=" ">
<polygon fill="white" stroke="#666666" points="332.62,-236.25 259.62,-236.25 259.62,-217 332.62,-217 332.62,-236.25"/>
<text text-anchor="middle" x="296.12" y="-222.75" font-family="Helvetica,sans-Serif" font-size="10.00">std::array::fill</text>
</a>
</g>
</g>
<!-- Node4&#45;&gt;Node5 -->
<g id="edge5_Node000004_Node000005" class="edge">
<title>Node4&#45;&gt;Node5</title>
<g id="a_edge5_Node000004_Node000005"><a xlink:title=" ">
<path fill="none" stroke="#63b8ff" d="M194.14,-199.27C212.2,-204.16 231.87,-209.49 249.02,-214.14"/>
<polygon fill="#63b8ff" stroke="#63b8ff" points="247.77,-217.69 258.33,-216.93 249.6,-210.94 247.77,-217.69"/>
</a>
</g>
</g>
<!-- Node6 -->
<g id="Node000006" class="node">
<title>Node6</title>
<g id="a_Node000006"><a xlink:href="../../d4/d90/classdata__structures_1_1_skip_list.html#aa3f3813e9896792fc86b296547689ba4" target="_top" xlink:title=" ">
<polygon fill="white" stroke="#666666" points="358.5,-198.88 233.75,-198.88 233.75,-168.38 358.5,-168.38 358.5,-198.88"/>
<text text-anchor="start" x="241.75" y="-185.38" font-family="Helvetica,sans-Serif" font-size="10.00">data_structures::SkipList</text>
<text text-anchor="middle" x="296.12" y="-174.12" font-family="Helvetica,sans-Serif" font-size="10.00">::randomLevel</text>
</a>
</g>
</g>
<!-- Node4&#45;&gt;Node6 -->
<g id="edge6_Node000004_Node000006" class="edge">
<title>Node4&#45;&gt;Node6</title>
<g id="a_edge6_Node000004_Node000006"><a xlink:title=" ">
<path fill="none" stroke="#63b8ff" d="M198.21,-183.62C206.17,-183.62 214.38,-183.62 222.49,-183.62"/>
<polygon fill="#63b8ff" stroke="#63b8ff" points="222.46,-187.13 232.46,-183.62 222.46,-180.13 222.46,-187.13"/>
</a>
</g>
</g>
<!-- Node8 -->
<g id="Node000008" class="node">
<title>Node8</title>
<g id="a_Node000008"><a xlink:href="../../d2/d45/segtree_8cpp.html#abd3e818681fb2e29cf08f4f60f82c8e0" target="_top" xlink:title="Updates a range of the segment tree.">
<polygon fill="white" stroke="#666666" points="318.75,-132.25 273.5,-132.25 273.5,-113 318.75,-113 318.75,-132.25"/>
<text text-anchor="middle" x="296.12" y="-118.75" font-family="Helvetica,sans-Serif" font-size="10.00">update</text>
</a>
</g>
</g>
<!-- Node4&#45;&gt;Node8 -->
<g id="edge8_Node000004_Node000008" class="edge">
<title>Node4&#45;&gt;Node8</title>
<g id="a_edge8_Node000004_Node000008"><a xlink:title=" ">
<path fill="none" stroke="#63b8ff" d="M177.26,-167.92C204.11,-157.6 238.71,-144.3 263.46,-134.79"/>
<polygon fill="#63b8ff" stroke="#63b8ff" points="264.34,-137.82 272.42,-130.97 261.83,-131.29 264.34,-137.82"/>
</a>
</g>
</g>
<!-- Node6&#45;&gt;Node7 -->
<g id="edge7_Node000006_Node000007" class="edge">
<title>Node6&#45;&gt;Node7</title>
<g id="a_edge7_Node000006_Node000007"><a xlink:title=" ">
<path fill="none" stroke="#63b8ff" d="M337.79,-167.88C344.71,-165.16 351.82,-162.33 358.5,-159.62 367.79,-155.86 377.83,-151.71 387.07,-147.84"/>
<polygon fill="#63b8ff" stroke="#63b8ff" points="388.22,-150.73 396.08,-143.63 385.5,-144.28 388.22,-150.73"/>
</a>
</g>
</g>
<!-- Node8&#45;&gt;Node8 -->
<g id="edge9_Node000008_Node000008" class="edge">
<title>Node8&#45;&gt;Node8</title>
<g id="a_edge9_Node000008_Node000008"><a xlink:title=" ">
<path fill="none" stroke="#63b8ff" d="M276.48,-132.54C267.52,-141.15 274.06,-150.25 296.12,-150.25 308.88,-150.25 316.45,-147.21 318.83,-142.98"/>
<polygon fill="#63b8ff" stroke="#63b8ff" points="321.95,-142.15 315.77,-133.54 315.23,-144.12 321.95,-142.15"/>
</a>
</g>
</g>
</g>
</svg>
