<?xml version="1.0" encoding="UTF-8" standalone="no"?>
<!DOCTYPE svg PUBLIC "-//W3C//DTD SVG 1.1//EN"
 "http://www.w3.org/Graphics/SVG/1.1/DTD/svg11.dtd">
<!-- Generated by graphviz version 8.1.0 (20230707.0739)
 -->
<!-- Title: hashing::sha256::sha256 Pages: 1 -->
<svg width="635pt" height="253pt"
 viewBox="0.00 0.00 634.50 253.49" xmlns="http://www.w3.org/2000/svg" xmlns:xlink="http://www.w3.org/1999/xlink">
<g id="graph0" class="graph" transform="scale(1 1) rotate(0) translate(4 249.49)">
<title>hashing::sha256::sha256</title>
<!-- Node1 -->
<g id="Node000001" class="node">
<title>Node1</title>
<g id="a_Node000001"><a xlink:title="Computes the final hash value.">
<polygon fill="#999999" stroke="#666666" points="124.75,-89.87 0,-89.87 0,-70.62 124.75,-70.62 124.75,-89.87"/>
<text text-anchor="middle" x="62.38" y="-76.37" font-family="Helvetica,sans-Serif" font-size="10.00">hashing::sha256::sha256</text>
</a>
</g>
</g>
<!-- Node1&#45;&gt;Node1 -->
<g id="edge13_Node000001_Node000001" class="edge">
<title>Node1&#45;&gt;Node1</title>
<g id="a_edge13_Node000001_Node000001"><a xlink:title=" ">
<path fill="none" stroke="#63b8ff" d="M36.62,-90.16C24.87,-98.76 33.46,-107.87 62.38,-107.87 79.54,-107.87 89.55,-104.66 92.38,-100.25"/>
<polygon fill="#63b8ff" stroke="#63b8ff" points="95.24,-99.01 88.13,-91.16 88.78,-101.73 95.24,-99.01"/>
</a>
</g>
</g>
<!-- Node2 -->
<g id="Node000002" class="node">
<title>Node2</title>
<g id="a_Node000002"><a xlink:href="../../d4/d08/sha256_8cpp.html#a28c1c6724dc6bcf91a39818699bbec27" target="_top" xlink:title="Computes size of the padded input.">
<polygon fill="white" stroke="#666666" points="626.5,-227.49 495.75,-227.49 495.75,-196.99 626.5,-196.99 626.5,-227.49"/>
<text text-anchor="start" x="503.75" y="-213.99" font-family="Helvetica,sans-Serif" font-size="10.00">hashing::sha256::compute</text>
<text text-anchor="middle" x="561.12" y="-202.74" font-family="Helvetica,sans-Serif" font-size="10.00">_padded_size</text>
</a>
</g>
</g>
<!-- Node1&#45;&gt;Node2 -->
<g id="edge1_Node000001_Node000002" class="edge">
<title>Node1&#45;&gt;Node2</title>
<g id="a_edge1_Node000001_Node000002"><a xlink:title=" ">
<path fill="none" stroke="#63b8ff" d="M72.33,-90.34C88.4,-107.89 123.93,-144.19 160.75,-165.24 278.11,-232.36 324.69,-227.29 459.75,-221.24 467.77,-220.88 476.14,-220.36 484.48,-219.75"/>
<polygon fill="#63b8ff" stroke="#63b8ff" points="484.69,-223.17 494.39,-218.9 484.15,-216.19 484.69,-223.17"/>
</a>
</g>
</g>
<!-- Node3 -->
<g id="Node000003" class="node">
<title>Node3</title>
<g id="a_Node000003"><a xlink:href="../../d4/d08/sha256_8cpp.html#a525531b3939ed44fbf01674e21931b3a" target="_top" xlink:title="Creates the message schedule array.">
<polygon fill="white" stroke="#666666" points="293,-138.49 160.75,-138.49 160.75,-107.99 293,-107.99 293,-138.49"/>
<text text-anchor="start" x="168.75" y="-124.99" font-family="Helvetica,sans-Serif" font-size="10.00">hashing::sha256::create</text>
<text text-anchor="middle" x="226.88" y="-113.74" font-family="Helvetica,sans-Serif" font-size="10.00">_message_schedule_array</text>
</a>
</g>
</g>
<!-- Node1&#45;&gt;Node3 -->
<g id="edge3_Node000001_Node000003" class="edge">
<title>Node1&#45;&gt;Node3</title>
<g id="a_edge3_Node000001_Node000003"><a xlink:title=" ">
<path fill="none" stroke="#63b8ff" d="M101.47,-90.32C117.7,-94.62 137.17,-99.77 155.83,-104.71"/>
<polygon fill="#63b8ff" stroke="#63b8ff" points="154.83,-108.33 165.39,-107.5 156.62,-101.56 154.83,-108.33"/>
</a>
</g>
</g>
<!-- Node5 -->
<g id="Node000005" class="node">
<title>Node5</title>
<g id="a_Node000005"><a target="_blank" xlink:href="http://en.cppreference.com/w/cpp/string/basic_string/size.html#" xlink:title=" ">
<polygon fill="white" stroke="#666666" points="607,-148.87 515.25,-148.87 515.25,-129.62 607,-129.62 607,-148.87"/>
<text text-anchor="middle" x="561.12" y="-135.37" font-family="Helvetica,sans-Serif" font-size="10.00">std::string::length</text>
</a>
</g>
</g>
<!-- Node1&#45;&gt;Node5 -->
<g id="edge12_Node000001_Node000005" class="edge">
<title>Node1&#45;&gt;Node5</title>
<g id="a_edge12_Node000001_Node000005"><a xlink:title=" ">
<path fill="none" stroke="#63b8ff" d="M124.96,-76.96C203.61,-74.19 343.44,-74.02 459.75,-99.24 484.61,-104.63 511.31,-115.54 530.91,-124.6"/>
<polygon fill="#63b8ff" stroke="#63b8ff" points="529.21,-128.14 539.74,-129.27 532.21,-121.82 529.21,-128.14"/>
</a>
</g>
</g>
<!-- Node7 -->
<g id="Node000007" class="node">
<title>Node7</title>
<g id="a_Node000007"><a xlink:href="../../d1/df3/hash__search_8cpp.html#a566eaf0ffafd50bc61e644561fd27001" target="_top" xlink:title=" ">
<polygon fill="white" stroke="#666666" points="408.77,-25.87 379.98,-25.87 379.98,-6.62 408.77,-6.62 408.77,-25.87"/>
<text text-anchor="middle" x="394.38" y="-12.37" font-family="Helvetica,sans-Serif" font-size="10.00">h</text>
</a>
</g>
</g>
<!-- Node1&#45;&gt;Node7 -->
<g id="edge11_Node000001_Node000007" class="edge">
<title>Node1&#45;&gt;Node7</title>
<g id="a_edge11_Node000001_Node000007"><a xlink:title=" ">
<path fill="none" stroke="#63b8ff" d="M73.32,-70.24C89.79,-54.48 124.5,-24.51 160.75,-13.24 233.71,9.43 325.85,-3.04 369,-11.1"/>
<polygon fill="#63b8ff" stroke="#63b8ff" points="368.09,-14.68 378.58,-13.17 369.44,-7.81 368.09,-14.68"/>
</a>
</g>
</g>
<!-- Node8 -->
<g id="Node000008" class="node">
<title>Node8</title>
<g id="a_Node000008"><a xlink:href="../../d6/d84/classhashing_1_1sha256_1_1_hash.html#a0896c27ac39c780e0ee62417fdd0b9d3" target="_top" xlink:title="Updates the hash array.">
<polygon fill="white" stroke="#666666" points="285.12,-52.49 168.62,-52.49 168.62,-21.99 285.12,-21.99 285.12,-52.49"/>
<text text-anchor="start" x="176.62" y="-38.99" font-family="Helvetica,sans-Serif" font-size="10.00">hashing::sha256::Hash</text>
<text text-anchor="middle" x="226.88" y="-27.74" font-family="Helvetica,sans-Serif" font-size="10.00">::update</text>
</a>
</g>
</g>
<!-- Node1&#45;&gt;Node8 -->
<g id="edge14_Node000001_Node000008" class="edge">
<title>Node1&#45;&gt;Node8</title>
<g id="a_edge14_Node000001_Node000008"><a xlink:title=" ">
<path fill="none" stroke="#63b8ff" d="M101.47,-70.16C118.25,-65.72 138.49,-60.37 157.73,-55.28"/>
<polygon fill="#63b8ff" stroke="#63b8ff" points="158.51,-58.43 167.28,-52.48 156.72,-51.66 158.51,-58.43"/>
</a>
</g>
</g>
<!-- Node2&#45;&gt;Node2 -->
<g id="edge2_Node000002_Node000002" class="edge">
<title>Node2&#45;&gt;Node2</title>
<g id="a_edge2_Node000002_Node000002"><a xlink:title=" ">
<path fill="none" stroke="#63b8ff" d="M531.58,-227.98C525.55,-237.05 535.4,-245.49 561.12,-245.49 575.6,-245.49 585.05,-242.82 589.47,-238.87"/>
<polygon fill="#63b8ff" stroke="#63b8ff" points="593.05,-239.3 590.67,-228.98 586.1,-238.53 593.05,-239.3"/>
</a>
</g>
</g>
<!-- Node3&#45;&gt;Node3 -->
<g id="edge4_Node000003_Node000003" class="edge">
<title>Node3&#45;&gt;Node3</title>
<g id="a_edge4_Node000003_Node000003"><a xlink:title=" ">
<path fill="none" stroke="#63b8ff" d="M197.73,-138.98C191.78,-148.05 201.49,-156.49 226.88,-156.49 241.15,-156.49 250.47,-153.82 254.84,-149.87"/>
<polygon fill="#63b8ff" stroke="#63b8ff" points="258.42,-150.3 256.02,-139.98 251.46,-149.54 258.42,-150.3"/>
</a>
</g>
</g>
<!-- Node4 -->
<g id="Node000004" class="node">
<title>Node4</title>
<g id="a_Node000004"><a xlink:href="../../d4/d08/sha256_8cpp.html#a9e98c180d32b04aab6f767cb0c13e1da" target="_top" xlink:title="Returns the character at pos after the input is padded.">
<polygon fill="white" stroke="#666666" points="459.75,-193.87 329,-193.87 329,-174.62 459.75,-174.62 459.75,-193.87"/>
<text text-anchor="middle" x="394.38" y="-180.37" font-family="Helvetica,sans-Serif" font-size="10.00">hashing::sha256::get_char</text>
</a>
</g>
</g>
<!-- Node3&#45;&gt;Node4 -->
<g id="edge5_Node000003_Node000004" class="edge">
<title>Node3&#45;&gt;Node4</title>
<g id="a_edge5_Node000003_Node000004"><a xlink:title=" ">
<path fill="none" stroke="#63b8ff" d="M263.08,-138.95C282.36,-147.27 306.78,-157.37 329,-165.24 334.56,-167.21 340.44,-169.15 346.29,-170.98"/>
<polygon fill="#63b8ff" stroke="#63b8ff" points="345.14,-174.59 355.73,-174.16 347.19,-167.9 345.14,-174.59"/>
</a>
</g>
</g>
<!-- Node6 -->
<g id="Node000006" class="node">
<title>Node6</title>
<g id="a_Node000006"><a xlink:href="../../d4/d08/sha256_8cpp.html#adbcd504103c342a4da718f8fce6ff06c" target="_top" xlink:title="Rotates the bits of a 32&#45;bit unsigned integer.">
<polygon fill="white" stroke="#666666" points="450.38,-138.49 338.38,-138.49 338.38,-107.99 450.38,-107.99 450.38,-138.49"/>
<text text-anchor="start" x="346.38" y="-124.99" font-family="Helvetica,sans-Serif" font-size="10.00">hashing::sha256::right</text>
<text text-anchor="middle" x="394.38" y="-113.74" font-family="Helvetica,sans-Serif" font-size="10.00">_rotate</text>
</a>
</g>
</g>
<!-- Node3&#45;&gt;Node6 -->
<g id="edge9_Node000003_Node000006" class="edge">
<title>Node3&#45;&gt;Node6</title>
<g id="a_edge9_Node000003_Node000006"><a xlink:title=" ">
<path fill="none" stroke="#63b8ff" d="M293.28,-123.24C304.4,-123.24 315.95,-123.24 327.08,-123.24"/>
<polygon fill="#63b8ff" stroke="#63b8ff" points="327.05,-126.74 337.05,-123.24 327.05,-119.74 327.05,-126.74"/>
</a>
</g>
</g>
<!-- Node4&#45;&gt;Node2 -->
<g id="edge6_Node000004_Node000002" class="edge">
<title>Node4&#45;&gt;Node2</title>
<g id="a_edge6_Node000004_Node000002"><a xlink:title=" ">
<path fill="none" stroke="#63b8ff" d="M454.85,-194.35C464.53,-196 474.67,-197.72 484.67,-199.42"/>
<polygon fill="#63b8ff" stroke="#63b8ff" points="483.99,-203.02 494.44,-201.25 485.17,-196.12 483.99,-203.02"/>
</a>
</g>
</g>
<!-- Node4&#45;&gt;Node4 -->
<g id="edge7_Node000004_Node000004" class="edge">
<title>Node4&#45;&gt;Node4</title>
<g id="a_edge7_Node000004_Node000004"><a xlink:title=" ">
<path fill="none" stroke="#63b8ff" d="M368.27,-194.16C356.36,-202.76 365.06,-211.87 394.38,-211.87 411.78,-211.87 421.92,-208.66 424.79,-204.25"/>
<polygon fill="#63b8ff" stroke="#63b8ff" points="427.63,-202.98 420.48,-195.16 421.19,-205.73 427.63,-202.98"/>
</a>
</g>
</g>
<!-- Node4&#45;&gt;Node5 -->
<g id="edge8_Node000004_Node000005" class="edge">
<title>Node4&#45;&gt;Node5</title>
<g id="a_edge8_Node000004_Node000005"><a xlink:title=" ">
<path fill="none" stroke="#63b8ff" d="M432.35,-174.14C456.09,-167.66 487.15,-159.18 512.7,-152.2"/>
<polygon fill="#63b8ff" stroke="#63b8ff" points="513.55,-155.32 522.28,-149.31 511.71,-148.57 513.55,-155.32"/>
</a>
</g>
</g>
<!-- Node6&#45;&gt;Node6 -->
<g id="edge10_Node000006_Node000006" class="edge">
<title>Node6&#45;&gt;Node6</title>
<g id="a_edge10_Node000006_Node000006"><a xlink:title=" ">
<path fill="none" stroke="#63b8ff" d="M364.83,-138.98C358.8,-148.05 368.65,-156.49 394.38,-156.49 408.85,-156.49 418.3,-153.82 422.72,-149.87"/>
<polygon fill="#63b8ff" stroke="#63b8ff" points="426.3,-150.3 423.92,-139.98 419.35,-149.53 426.3,-150.3"/>
</a>
</g>
</g>
<!-- Node8&#45;&gt;Node6 -->
<g id="edge16_Node000008_Node000006" class="edge">
<title>Node8&#45;&gt;Node6</title>
<g id="a_edge16_Node000008_Node000006"><a xlink:title=" ">
<path fill="none" stroke="#63b8ff" d="M257.85,-52.82C284.63,-66.73 324.06,-87.23 353.5,-102.52"/>
<polygon fill="#63b8ff" stroke="#63b8ff" points="351.58,-105.99 362.07,-107.49 354.81,-99.78 351.58,-105.99"/>
</a>
</g>
</g>
<!-- Node8&#45;&gt;Node7 -->
<g id="edge15_Node000008_Node000007" class="edge">
<title>Node8&#45;&gt;Node7</title>
<g id="a_edge15_Node000008_Node000007"><a xlink:title=" ">
<path fill="none" stroke="#63b8ff" d="M285.29,-29.96C313.94,-26.32 347.07,-22.12 369.02,-19.33"/>
<polygon fill="#63b8ff" stroke="#63b8ff" points="369.2,-22.71 378.68,-17.98 368.32,-15.77 369.2,-22.71"/>
</a>
</g>
</g>
</g>
</svg>
