<?xml version="1.0" encoding="UTF-8" standalone="no"?>
<!DOCTYPE svg PUBLIC "-//W3C//DTD SVG 1.1//EN"
 "http://www.w3.org/Graphics/SVG/1.1/DTD/svg11.dtd">
<!-- Generated by graphviz version 8.1.0 (20230707.0739)
 -->
<!-- Title: data_structures::SkipList::insertElement Pages: 1 -->
<svg width="384pt" height="168pt"
 viewBox="0.00 0.00 383.75 168.25" xmlns="http://www.w3.org/2000/svg" xmlns:xlink="http://www.w3.org/1999/xlink">

<svg id="main" version="1.1" xmlns="http://www.w3.org/2000/svg" xmlns:xlink="http://www.w3.org/1999/xlink" xml:space="preserve" onload="init(evt)">
<style type="text/css"><![CDATA[
.node, .edge {opacity: 0.7;}
.node.selected, .edge.selected {opacity: 1;}
.edge:hover path { stroke: red; }
.edge:hover polygon { stroke: red; fill: red; }
]]></style>
<script type="application/ecmascript" xlink:href="../../svg.min.js"/>
<svg id="graph" class="graph">
<g id="graph0" class="graph" transform="scale(1 1) rotate(0) translate(4 164.25)">
<title>data_structures::SkipList::insertElement</title>
<!-- Node1 -->
<g id="Node000001" class="node">
<title>Node1</title>
<g id="a_Node000001"><a xlink:title=" ">
<polygon fill="#999999" stroke="#666666" points="124.75,-106.88 0,-106.88 0,-76.38 124.75,-76.38 124.75,-106.88"/>
<text text-anchor="start" x="8" y="-93.38" font-family="Helvetica,sans-Serif" font-size="10.00">data_structures::SkipList</text>
<text text-anchor="middle" x="62.38" y="-82.12" font-family="Helvetica,sans-Serif" font-size="10.00">::insertElement</text>
</a>
</g>
</g>
<!-- Node2 -->
<g id="Node000002" class="node">
<title>Node2</title>
<g id="a_Node000002"><a target="_blank" xlink:href="http://en.cppreference.com/w/cpp/io/manip/endl.html#" xlink:title=" ">
<polygon fill="white" stroke="#666666" points="249.88,-160.25 196.38,-160.25 196.38,-141 249.88,-141 249.88,-160.25"/>
<text text-anchor="middle" x="223.12" y="-146.75" font-family="Helvetica,sans-Serif" font-size="10.00">std::endl</text>
</a>
</g>
</g>
<!-- Node1&#45;&gt;Node2 -->
<g id="edge1_Node000001_Node000002" class="edge">
<title>Node1&#45;&gt;Node2</title>
<g id="a_edge1_Node000001_Node000002"><a xlink:title=" ">
<path fill="none" stroke="#63b8ff" d="M97.7,-107.2C116.18,-115.3 139.49,-125.06 160.75,-132.62 168.68,-135.45 177.29,-138.18 185.49,-140.62"/>
<polygon fill="#63b8ff" stroke="#63b8ff" points="184.36,-144.22 194.93,-143.65 186.31,-137.5 184.36,-144.22"/>
</a>
</g>
</g>
<!-- Node3 -->
<g id="Node000003" class="node">
<title>Node3</title>
<g id="a_Node000003"><a target="_blank" xlink:href="http://en.cppreference.com/w/cpp/container/array/fill.html#" xlink:title=" ">
<polygon fill="white" stroke="#666666" points="259.62,-123.25 186.62,-123.25 186.62,-104 259.62,-104 259.62,-123.25"/>
<text text-anchor="middle" x="223.12" y="-109.75" font-family="Helvetica,sans-Serif" font-size="10.00">std::array::fill</text>
</a>
</g>
</g>
<!-- Node1&#45;&gt;Node3 -->
<g id="edge2_Node000001_Node000003" class="edge">
<title>Node1&#45;&gt;Node3</title>
<g id="a_edge2_Node000001_Node000003"><a xlink:title=" ">
<path fill="none" stroke="#63b8ff" d="M125.21,-100.19C142.04,-102.53 159.98,-105.01 175.8,-107.2"/>
<polygon fill="#63b8ff" stroke="#63b8ff" points="174.98,-110.76 185.37,-108.67 175.94,-103.83 174.98,-110.76"/>
</a>
</g>
</g>
<!-- Node4 -->
<g id="Node000004" class="node">
<title>Node4</title>
<g id="a_Node000004"><a xlink:href="../../d4/d90/classdata__structures_1_1_skip_list.html#aa3f3813e9896792fc86b296547689ba4" target="_top" xlink:title=" ">
<polygon fill="white" stroke="#666666" points="285.5,-85.88 160.75,-85.88 160.75,-55.38 285.5,-55.38 285.5,-85.88"/>
<text text-anchor="start" x="168.75" y="-72.38" font-family="Helvetica,sans-Serif" font-size="10.00">data_structures::SkipList</text>
<text text-anchor="middle" x="223.12" y="-61.12" font-family="Helvetica,sans-Serif" font-size="10.00">::randomLevel</text>
</a>
</g>
</g>
<!-- Node1&#45;&gt;Node4 -->
<g id="edge3_Node000001_Node000004" class="edge">
<title>Node1&#45;&gt;Node4</title>
<g id="a_edge3_Node000001_Node000004"><a xlink:title=" ">
<path fill="none" stroke="#63b8ff" d="M125.21,-83.45C133.26,-82.38 141.56,-81.28 149.77,-80.2"/>
<polygon fill="#63b8ff" stroke="#63b8ff" points="150.01,-83.56 159.46,-78.78 149.09,-76.62 150.01,-83.56"/>
</a>
</g>
</g>
<!-- Node6 -->
<g id="Node000006" class="node">
<title>Node6</title>
<g id="a_Node000006"><a xlink:href="../../d2/d45/segtree_8cpp.html#abd3e818681fb2e29cf08f4f60f82c8e0" target="_top" xlink:title="Updates a range of the segment tree.">
<polygon fill="white" stroke="#666666" points="245.75,-19.25 200.5,-19.25 200.5,0 245.75,0 245.75,-19.25"/>
<text text-anchor="middle" x="223.12" y="-5.75" font-family="Helvetica,sans-Serif" font-size="10.00">update</text>
</a>
</g>
</g>
<!-- Node1&#45;&gt;Node6 -->
<g id="edge5_Node000001_Node000006" class="edge">
<title>Node1&#45;&gt;Node6</title>
<g id="a_edge5_Node000001_Node000006"><a xlink:title=" ">
<path fill="none" stroke="#63b8ff" d="M93.61,-76.01C122.29,-61.19 165.09,-39.09 193.3,-24.51"/>
<polygon fill="#63b8ff" stroke="#63b8ff" points="194.7,-27.21 201.98,-19.51 191.49,-20.99 194.7,-27.21"/>
</a>
</g>
</g>
<!-- Node5 -->
<g id="Node000005" class="node">
<title>Node5</title>
<g id="a_Node000005"><a target="_blank" xlink:href="http://en.cppreference.com/w/cpp/numeric/random/rand.html#" xlink:title=" ">
<polygon fill="white" stroke="#666666" points="375.75,-80.25 321.5,-80.25 321.5,-61 375.75,-61 375.75,-80.25"/>
<text text-anchor="middle" x="348.62" y="-66.75" font-family="Helvetica,sans-Serif" font-size="10.00">std::rand</text>
</a>
</g>
</g>
<!-- Node4&#45;&gt;Node5 -->
<g id="edge4_Node000004_Node000005" class="edge">
<title>Node4&#45;&gt;Node5</title>
<g id="a_edge4_Node000004_Node000005"><a xlink:title=" ">
<path fill="none" stroke="#63b8ff" d="M285.88,-70.62C294.22,-70.62 302.57,-70.62 310.3,-70.62"/>
<polygon fill="#63b8ff" stroke="#63b8ff" points="310.13,-74.13 320.13,-70.62 310.13,-67.13 310.13,-74.13"/>
</a>
</g>
</g>
<!-- Node6&#45;&gt;Node6 -->
<g id="edge6_Node000006_Node000006" class="edge">
<title>Node6&#45;&gt;Node6</title>
<g id="a_edge6_Node000006_Node000006"><a xlink:title=" ">
<path fill="none" stroke="#63b8ff" d="M203.48,-19.54C194.52,-28.15 201.06,-37.25 223.12,-37.25 235.88,-37.25 243.45,-34.21 245.83,-29.98"/>
<polygon fill="#63b8ff" stroke="#63b8ff" points="248.95,-29.15 242.77,-20.54 242.23,-31.12 248.95,-29.15"/>
</a>
</g>
</g>
</g>
</svg>
</svg>

<style type='text/css'>
<![CDATA[
[data-mouse-over-selected='false'] { opacity: 0.7; }
[data-mouse-over-selected='true']  { opacity: 1.0; }
]]>
</style>
<script type="application/ecmascript"><![CDATA[
document.addEventListener('DOMContentLoaded', (event) => {
  highlightEdges();
  highlightAdjacentNodes();
});
]]></script>
</svg>
