<?xml version="1.0" encoding="UTF-8" standalone="no"?>
<!DOCTYPE svg PUBLIC "-//W3C//DTD SVG 1.1//EN"
 "http://www.w3.org/Graphics/SVG/1.1/DTD/svg11.dtd">
<!-- Generated by graphviz version 8.1.0 (20230707.0739)
 -->
<!-- Title: data_structures::SkipList::deleteElement Pages: 1 -->
<svg width="242pt" height="119pt"
 viewBox="0.00 0.00 241.75 119.25" xmlns="http://www.w3.org/2000/svg" xmlns:xlink="http://www.w3.org/1999/xlink">
<g id="graph0" class="graph" transform="scale(1 1) rotate(0) translate(4 115.25)">
<title>data_structures::SkipList::deleteElement</title>
<!-- Node1 -->
<g id="Node000001" class="node">
<title>Node1</title>
<g id="a_Node000001"><a xlink:title=" ">
<polygon fill="#999999" stroke="#666666" points="124.75,-79.88 0,-79.88 0,-49.38 124.75,-49.38 124.75,-79.88"/>
<text text-anchor="start" x="8" y="-66.38" font-family="Helvetica,sans-Serif" font-size="10.00">data_structures::SkipList</text>
<text text-anchor="middle" x="62.38" y="-55.12" font-family="Helvetica,sans-Serif" font-size="10.00">::deleteElement</text>
</a>
</g>
</g>
<!-- Node2 -->
<g id="Node000002" class="node">
<title>Node2</title>
<g id="a_Node000002"><a target="_blank" xlink:href="http://en.cppreference.com/w/cpp/io/manip/endl.html#" xlink:title=" ">
<polygon fill="white" stroke="#666666" points="224,-111.25 170.5,-111.25 170.5,-92 224,-92 224,-111.25"/>
<text text-anchor="middle" x="197.25" y="-97.75" font-family="Helvetica,sans-Serif" font-size="10.00">std::endl</text>
</a>
</g>
</g>
<!-- Node1&#45;&gt;Node2 -->
<g id="edge1_Node000001_Node000002" class="edge">
<title>Node1&#45;&gt;Node2</title>
<g id="a_edge1_Node000001_Node000002"><a xlink:title=" ">
<path fill="none" stroke="#63b8ff" d="M119.73,-80.32C133.29,-84.09 147.44,-88.03 159.82,-91.48"/>
<polygon fill="#63b8ff" stroke="#63b8ff" points="158.61,-95.06 169.19,-94.37 160.49,-88.31 158.61,-95.06"/>
</a>
</g>
</g>
<!-- Node3 -->
<g id="Node000003" class="node">
<title>Node3</title>
<g id="a_Node000003"><a target="_blank" xlink:href="http://en.cppreference.com/w/cpp/container/array/fill.html#" xlink:title=" ">
<polygon fill="white" stroke="#666666" points="233.75,-74.25 160.75,-74.25 160.75,-55 233.75,-55 233.75,-74.25"/>
<text text-anchor="middle" x="197.25" y="-60.75" font-family="Helvetica,sans-Serif" font-size="10.00">std::array::fill</text>
</a>
</g>
</g>
<!-- Node1&#45;&gt;Node3 -->
<g id="edge2_Node000001_Node000003" class="edge">
<title>Node1&#45;&gt;Node3</title>
<g id="a_edge2_Node000001_Node000003"><a xlink:title=" ">
<path fill="none" stroke="#63b8ff" d="M125.14,-64.62C133.34,-64.62 141.64,-64.62 149.53,-64.62"/>
<polygon fill="#63b8ff" stroke="#63b8ff" points="149.35,-68.13 159.35,-64.62 149.35,-61.13 149.35,-68.13"/>
</a>
</g>
</g>
<!-- Node4 -->
<g id="Node000004" class="node">
<title>Node4</title>
<g id="a_Node000004"><a xlink:href="../../d2/d45/segtree_8cpp.html#abd3e818681fb2e29cf08f4f60f82c8e0" target="_top" xlink:title="Updates a range of the segment tree.">
<polygon fill="white" stroke="#666666" points="219.88,-19.25 174.62,-19.25 174.62,0 219.88,0 219.88,-19.25"/>
<text text-anchor="middle" x="197.25" y="-5.75" font-family="Helvetica,sans-Serif" font-size="10.00">update</text>
</a>
</g>
</g>
<!-- Node1&#45;&gt;Node4 -->
<g id="edge3_Node000001_Node000004" class="edge">
<title>Node1&#45;&gt;Node4</title>
<g id="a_edge3_Node000001_Node000004"><a xlink:title=" ">
<path fill="none" stroke="#63b8ff" d="M101.1,-49.01C121.04,-40.76 145.25,-30.74 164.26,-22.87"/>
<polygon fill="#63b8ff" stroke="#63b8ff" points="165.32,-25.8 173.22,-18.74 162.65,-19.33 165.32,-25.8"/>
</a>
</g>
</g>
<!-- Node4&#45;&gt;Node4 -->
<g id="edge4_Node000004_Node000004" class="edge">
<title>Node4&#45;&gt;Node4</title>
<g id="a_edge4_Node000004_Node000004"><a xlink:title=" ">
<path fill="none" stroke="#63b8ff" d="M176.13,-19.54C166.5,-28.15 173.54,-37.25 197.25,-37.25 210.96,-37.25 219.09,-34.21 221.65,-29.98"/>
<polygon fill="#63b8ff" stroke="#63b8ff" points="224.71,-29.02 218.37,-20.54 218.03,-31.13 224.71,-29.02"/>
</a>
</g>
</g>
</g>
</svg>
